<svg id="Clear" xmlns="http://www.w3.org/2000/svg" width="24.301" height="18.228" viewBox="0 0 24.301 18.228">
  <path id="Path_374" data-name="Path 374" d="M4.333,15.239a.759.759,0,0,0-1.075,0L.221,18.277A.76.76,0,0,0,1.3,19.352l2.5-2.5,2.5,2.5a.76.76,0,1,0,1.075-1.075L4.334,15.24Zm19.743-1.519a.759.759,0,0,0-1.075,0l-2.5,2.5-2.5-2.5A.76.76,0,0,0,16.926,14.8l3.037,3.037a.759.759,0,0,0,1.075,0L24.076,14.8a.759.759,0,0,0,0-1.075Z" transform="translate(0.002 -7.423)" fill="#b0afb0" fill-rule="evenodd"/>
  <path id="Path_375" data-name="Path 375" d="M13.612,6.018A7.586,7.586,0,0,0,7.246,9.47a.759.759,0,0,1-1.271-.83,9.112,9.112,0,0,1,16.749,4.971.76.76,0,1,1-1.52,0,7.593,7.593,0,0,0-7.593-7.593ZM5.259,12.852a.759.759,0,0,1,.759.759,7.593,7.593,0,0,0,13.96,4.142.759.759,0,1,1,1.271.83A9.112,9.112,0,0,1,4.5,13.611a.759.759,0,0,1,.761-.759Z" transform="translate(-1.461 -4.497)" fill="#b0afb0" fill-rule="evenodd"/>
</svg>
