<svg version="1.1" xmlns="http://www.w3.org/2000/svg" xmlns:xlink="http://www.w3.org/1999/xlink" width="17.503" height="17.503" viewBox="0,0,256,256"><g fill="#f08557" fill-rule="evenodd" stroke="none" stroke-width="1" stroke-linecap="butt" stroke-linejoin="miter" stroke-miterlimit="10" stroke-dasharray="" stroke-dashoffset="0" font-family="none" font-weight="none" font-size="none" text-anchor="none" style="mix-blend-mode: normal"><g transform="translate(0.05305,0.05305) scale(14.62606,14.62606)"><path transform="translate(-3,-3)" d="M11.752,20.5c-3.54058,0.00162 -6.73336,-2.13015 -8.08903,-5.40091c-1.35567,-3.27076 -0.60714,-7.03612 1.89643,-9.53969c2.50357,-2.50357 6.26893,-3.2521 9.53969,-1.89643c3.27076,1.35567 5.40252,4.54845 5.40091,8.08903c-0.00221,4.83047 -3.91753,8.74579 -8.748,8.748zM18.752,11.748c0,-3.86599 -3.13401,-7 -7,-7c-3.86599,0 -7,3.13401 -7,7c0,3.86599 3.13401,7 7,7c3.86482,0.00055 6.99879,-3.13118 7.001,-6.996zM15.252,10.873c0.48325,0 0.875,0.39175 0.875,0.875c0,0.48325 -0.39175,0.875 -0.875,0.875h-2.625c-0.96536,-0.00275 -1.74725,-0.78464 -1.75,-1.75v-3.5c0,-0.48325 0.39175,-0.875 0.875,-0.875c0.48325,0 0.875,0.39175 0.875,0.875v3.5z" id="clock"></path></g></g></svg>