<svg xmlns="http://www.w3.org/2000/svg" width="19.293" height="12.823" viewBox="0 0 19.293 12.823">
  <g id="eye-outline" transform="translate(-1.604 -7.25)">
    <path id="Path_447" data-name="Path 447" d="M11.237,7.875c-3.132,0-6.345,1.813-8.873,5.438a.643.643,0,0,0-.011.714c1.943,3.043,5.113,5.421,8.884,5.421,3.731,0,6.965-2.386,8.912-5.435a.649.649,0,0,0,0-.7C18.2,10.3,14.94,7.875,11.237,7.875Z" fill="none" stroke="#f08557" stroke-linecap="round" stroke-linejoin="round" stroke-width="1.25"/>
    <path id="Path_448" data-name="Path 448" d="M18.8,15.59a3.215,3.215,0,1,1-3.215-3.215A3.215,3.215,0,0,1,18.8,15.59Z" transform="translate(-4.339 -1.928)" fill="none" stroke="#f08557" stroke-width="1.25"/>
  </g>
</svg>
