<svg xmlns="http://www.w3.org/2000/svg" width="19.479" height="15.471" viewBox="0 0 19.479 15.471">
  <g id="__TEMP__SVG__" transform="translate(0 -3.703)">
    <path id="Path_454" data-name="Path 454" d="M21.644,16.262a16.637,16.637,0,0,0,3.215-3.942s-3.652-6.7-9.739-6.7a8.556,8.556,0,0,0-3.4.716l.937.939a7.236,7.236,0,0,1,2.459-.437,9.079,9.079,0,0,1,6.292,2.991,15.989,15.989,0,0,1,2.021,2.487c-.071.106-.148.223-.238.351a16.061,16.061,0,0,1-1.783,2.137c-.2.2-.41.4-.629.591Z" fill="none" stroke="#f08557" transform="translate(-5.38 -0.882)"/>
    <path id="Path_455" data-name="Path 455" d="M18.4,15.815a4.261,4.261,0,0,0-5.447-5.447l1,1A3.044,3.044,0,0,1,17.4,14.814l1,1ZM14.813,17.4l1,1a4.261,4.261,0,0,1-5.447-5.447l1,1A3.044,3.044,0,0,0,14.813,17.4Z" fill="none" stroke="#f08557" transform="translate(-4.643 -2.944)"/>
    <path id="Path_456" data-name="Path 456" d="M4.079,11.576q-.329.292-.63.593a15.99,15.99,0,0,0-2.021,2.487l.238.351a16.06,16.06,0,0,0,1.783,2.137,9.081,9.081,0,0,0,6.292,2.991A7.212,7.212,0,0,0,12.2,19.7l.937.94a8.557,8.557,0,0,1-3.4.716c-6.087,0-9.739-6.7-9.739-6.7a16.581,16.581,0,0,1,3.215-3.942l.862.863Z" fill="none" stroke="#f08557" transform="translate(0 -3.218)"/>
    <path id="Path_457" data-name="Path 457" d="M18.313,19.174,3.7,4.565,4.566,3.7,19.175,18.312Z" transform="translate(-1.7 0)" fill="none" stroke="#f08557" fill-rule="evenodd"/>
  </g>
</svg>
