<svg id="Schedule" xmlns="http://www.w3.org/2000/svg" width="20.47" height="22.044" viewBox="0 0 20.47 22.044">
  <path id="calendar-plus-o" d="M18.9,3.149A1.513,1.513,0,0,1,20,3.617a1.513,1.513,0,0,1,.467,1.107V20.47A1.6,1.6,0,0,1,18.9,22.044H1.574a1.513,1.513,0,0,1-1.107-.467A1.513,1.513,0,0,1,0,20.47V4.724A1.513,1.513,0,0,1,.467,3.617a1.513,1.513,0,0,1,1.107-.467H3.149V1.968A1.9,1.9,0,0,1,3.727.578,1.9,1.9,0,0,1,5.117,0H5.9A1.9,1.9,0,0,1,7.3.578a1.9,1.9,0,0,1,.578,1.39V3.149H12.6V1.968a1.9,1.9,0,0,1,.578-1.39A1.9,1.9,0,0,1,14.565,0h.787a1.9,1.9,0,0,1,1.39.578,1.9,1.9,0,0,1,.578,1.39V3.149H18.9ZM14.172,1.968V5.511a.379.379,0,0,0,.394.394h.787a.379.379,0,0,0,.394-.394V1.968a.379.379,0,0,0-.394-.394h-.787a.379.379,0,0,0-.394.394Zm-9.448,0V5.511a.379.379,0,0,0,.394.394H5.9A.379.379,0,0,0,6.3,5.511V1.968A.379.379,0,0,0,5.9,1.574H5.117a.379.379,0,0,0-.394.394ZM18.9,20.47V7.873H1.574v12.6Zm-7.873-7.086h2.756a.379.379,0,0,1,.394.394v.787a.379.379,0,0,1-.394.394H11.022v2.756a.379.379,0,0,1-.394.394H9.841a.379.379,0,0,1-.394-.394V14.959H6.692a.379.379,0,0,1-.394-.394v-.787a.379.379,0,0,1,.394-.394H9.448V10.629a.379.379,0,0,1,.394-.394h.787a.379.379,0,0,1,.394.394v2.756Z" transform="translate(0)" fill="#5798fb"/>
</svg>
