<?xml version="1.0" encoding="UTF-8"?>
<svg version="1.1" xmlns="http://www.w3.org/2000/svg" width="67" height="67">
<path d="M0 0 C3.09824681 2.79597883 5.68730734 5.56211469 7.5625 9.3125 C7.60272391 11.6454866 7.60570247 13.97956666 7.5625 16.3125 C5.5825 16.3125 3.6025 16.3125 1.5625 16.3125 C1.335625 15.24 1.10875 14.1675 0.875 13.0625 C-0.59787451 8.85428713 -1.59726916 7.49444934 -5.4375 5.3125 C-9.01933417 4.72771075 -10.65558873 4.79122582 -13.6875 6.8125 C-17.51022784 12.27353978 -17.63011424 18.85341393 -18.4375 25.3125 C-8.5375 25.3125 1.3625 25.3125 11.5625 25.3125 C11.58541088 29.99395711 11.60533732 34.67522102 11.61743164 39.35668945 C11.62247157 40.95044614 11.6293035 42.54419819 11.63793945 44.13793945 C11.65001999 46.42400253 11.65573155 48.71000467 11.66015625 50.99609375 C11.66531754 51.71276718 11.67047882 52.42944061 11.67579651 53.16783142 C11.67599263 54.88313672 11.62442007 56.59831266 11.5625 58.3125 C9.66626798 60.20873202 6.89879641 59.44147626 4.3762207 59.45144653 C3.07624146 59.44841019 3.07624146 59.44841019 1.75 59.4453125 C0.42391724 59.44674759 0.42391724 59.44674759 -0.92895508 59.44821167 C-2.80192129 59.44889351 -4.67488986 59.44703893 -6.54785156 59.44287109 C-9.42518388 59.43752289 -12.30236008 59.44281593 -15.1796875 59.44921875 C-16.99479201 59.44855797 -18.80989643 59.44727681 -20.625 59.4453125 C-21.49165283 59.44733673 -22.35830566 59.44936096 -23.2512207 59.45144653 C-29.32254991 59.42745009 -29.32254991 59.42745009 -30.4375 58.3125 C-30.52593793 55.86419574 -30.55278752 53.44429401 -30.53515625 50.99609375 C-30.5337413 50.26503922 -30.53232635 49.53398468 -30.53086853 48.78077698 C-30.52525408 46.43714368 -30.51269922 44.09360461 -30.5 41.75 C-30.49498686 40.16471492 -30.49042363 38.57942834 -30.48632812 36.99414062 C-30.47527997 33.1002239 -30.45800572 29.20637795 -30.4375 25.3125 C-29.1175 25.3125 -27.7975 25.3125 -26.4375 25.3125 C-26.48390625 24.31089844 -26.5303125 23.30929688 -26.578125 22.27734375 C-27.01716675 8.88236497 -27.01716675 8.88236497 -22.4375 3.3125 C-16.14856214 -2.51627168 -7.78471733 -3.82158851 0 0 Z M-10.4375 35.3125 C-12.10371425 36.4770201 -12.10371425 36.4770201 -13.4375 38.3125 C-13.20706136 40.96716049 -13.20706136 40.96716049 -12.4375 43.3125 C-10.59024948 44.00409401 -10.59024948 44.00409401 -8.4375 44.3125 C-7.4475 43.6525 -6.4575 42.9925 -5.4375 42.3125 C-5.18719023 39.72869823 -5.18719023 39.72869823 -5.4375 37.3125 C-7.9125 36.3225 -7.9125 36.3225 -10.4375 35.3125 Z " fill="#D5683A" transform="translate(41.4375,4.6875)"/>
</svg>
